HIERARCHY
ROOT hip
{
	OFFSET 0.000000 0.000000 0.000000
	CHANNELS 6 Xposition Yposition Zposition Xrotation Zrotation Yrotation 
	JOINT abdomen
	{
		OFFSET 0.000000 3.422050 0.000000
		CHANNELS 3 Xrotation Zrotation Yrotation 
		JOINT chest
		{
			OFFSET 0.000000 8.486693 -0.684411
			CHANNELS 3 Xrotation Zrotation Yrotation 
			JOINT neck
			{
				OFFSET 0.000000 10.266162 -0.273764
				CHANNELS 3 Xrotation Zrotation Yrotation 
				JOINT head
				{
					OFFSET 0.000000 3.148285 0.000000
					CHANNELS 3 Xrotation Zrotation Yrotation 
					End Site
					{
						OFFSET 0.000000 3.148289 0.000000
					}
				}
			}
			JOINT lCollar
			{
				OFFSET 3.422053 6.707223 -0.821293
				CHANNELS 3 Yrotation Zrotation Xrotation 
				JOINT lShldr
				{
					OFFSET 3.285171 0.000000 0.000000
					CHANNELS 3 Zrotation Yrotation Xrotation 
					JOINT lForeArm
					{
						OFFSET 10.129278 0.000000 0.000000
						CHANNELS 3 Yrotation Zrotation Xrotation 
						JOINT lHand
						{
							OFFSET 8.486692 0.000000 0.000000
							CHANNELS 3 Zrotation Yrotation Xrotation 
							End Site
							{
								OFFSET 4.106464 0.000000 0.000000
							}
						}
					}
				}
			}
			JOINT rCollar
			{
				OFFSET -3.558935 6.707223 -0.821293
				CHANNELS 3 Yrotation Zrotation Xrotation 
				JOINT rShldr
				{
					OFFSET -3.148289 0.000000 0.000000
					CHANNELS 3 Zrotation Yrotation Xrotation 
					JOINT rForeArm
					{
						OFFSET -10.266159 0.000000 0.000000
						CHANNELS 3 Yrotation Zrotation Xrotation 
						JOINT rHand
						{
							OFFSET -8.349810 0.000000 0.000000
							CHANNELS 3 Zrotation Yrotation Xrotation 
							End Site
							{
								OFFSET -4.106464 0.000000 0.000000
							}
						}
					}
				}
			}
		}
	}
	JOINT lThigh
	{
		OFFSET 5.338403 -1.642589 1.368821
		CHANNELS 3 Xrotation Zrotation Yrotation 
		JOINT lShin
		{
			OFFSET -2.053232 -20.121670 0.000000
			CHANNELS 3 Xrotation Zrotation Yrotation 
			JOINT lFoot
			{
				OFFSET 0.000000 -19.300380 -1.231939
				CHANNELS 3 Xrotation Yrotation Zrotation 
				End Site
				{
					OFFSET 0.000000 -2.463878 4.653993
				}
			}
		}
	}
	JOINT rThigh
	{
		OFFSET -5.338403 -1.642589 1.368821
		CHANNELS 3 Xrotation Zrotation Yrotation 
		JOINT rShin
		{
			OFFSET 2.053232 -20.121670 0.000000
			CHANNELS 3 Xrotation Zrotation Yrotation 
			JOINT rFoot
			{
				OFFSET 0.000000 -19.300380 -1.231939
				CHANNELS 3 Xrotation Yrotation Zrotation 
				End Site
				{
					OFFSET 0.000000 -2.463878 4.653993
				}
			}
		}
	}
}
MOTION
Frames: 8
Frame Time: 0.071413
0.000000 43.528500 0.000000 0.000000 0.000000 0.000000 0.000000 0.000000 0.000000 0.000000 0.000000 0.000000 0.000000 0.000000 0.000000 0.000000 0.000000 0.000000 0.000000 0.000000 0.000000 0.000000 0.000000 0.000000 0.000000 0.000000 0.000000 0.000000 0.000000 0.000000 0.000000 0.000000 0.000000 0.000000 0.000000 0.000000 0.000000 0.000000 0.000000 0.000000 0.000000 0.000000 0.000000 0.000000 0.000000 0.000000 0.000000 0.000000 0.000000 0.000000 0.000000 0.000000 0.000000 0.000000 0.000000 0.000000 0.000000 0.000000 0.000000 0.000000 
-0.000001 6.994015 37.994293 -89.999779 -0.002623 -49.999363 10.644318 -20.762907 -8.673059 8.143319 -22.484301 -17.716896 0.213379 -21.171362 -15.062413 -1.744937 -0.847306 29.281582 -24.288727 -5.080628 -3.684725 -53.566746 21.870567 -64.862541 -14.328639 -10.147265 -34.974243 1.972771 -18.372290 37.043709 -29.361113 -0.611520 3.403126 8.166594 25.929308 32.940983 75.847427 -28.476120 32.275108 6.067425 2.971799 10.634416 -31.310486 5.851669 53.047234 89.594185 4.762113 -0.568799 4.544341 -7.557087 5.126237 -75.137535 -41.240425 7.312455 78.915321 9.637508 -2.685150 11.303211 -0.845566 19.642389 
-0.000001 6.994015 37.994293 -89.999779 -0.002623 -49.999363 10.644318 -20.762907 -8.673060 8.143319 -22.484301 -17.716896 0.994827 -21.171408 -15.062367 -1.354658 -1.202554 29.314499 -24.288729 -5.080629 -3.684725 -53.239616 21.657030 -64.845245 -14.328639 -10.147266 -34.974243 1.972741 -18.372158 38.242054 -29.361113 -0.611520 3.403126 8.166594 25.929310 32.940983 75.847427 -28.476120 32.275108 6.067426 2.971799 10.634416 -31.310486 5.851669 53.047234 89.594200 4.762113 -0.568799 4.544341 -7.557087 5.126237 -75.137535 -41.240429 7.312454 78.915329 9.637509 -2.685151 11.303212 -0.845566 19.642391 
-0.000001 6.994015 37.994293 -89.999771 -0.002621 -49.999363 10.644318 -20.762907 -8.673059 8.143319 -22.484301 -17.716896 1.777229 -21.171450 -15.062319 -0.964308 -1.558216 29.345024 -24.288723 -5.080628 -3.684725 -52.912949 21.443336 -64.829285 -14.328639 -10.147264 -34.974243 1.972712 -18.372025 39.443882 -29.361113 -0.611520 3.403126 8.166594 25.929308 32.940983 75.847427 -28.476120 32.275108 6.067425 2.971799 10.634416 -31.310482 5.851668 53.047234 89.594185 4.762113 -0.568798 4.544341 -7.557086 5.126236 -75.137535 -41.240425 7.312455 78.915321 9.637508 -2.685150 11.303211 -0.845566 19.642389 
-0.000001 6.994015 37.994293 -89.999779 -0.002623 -49.999363 10.644318 -20.762907 -8.673059 8.143319 -22.484301 -17.716896 2.560514 -21.171499 -15.062275 -0.573872 -1.914261 29.373133 -24.288729 -5.080628 -3.684725 -52.586739 21.229511 -64.814659 -14.328639 -10.147265 -34.974243 1.972688 -18.371887 40.648945 -29.361113 -0.611520 3.403126 8.166594 25.929308 32.940983 75.847427 -28.476120 32.275108 6.067425 2.971799 10.634416 -31.310486 5.851669 53.047234 89.594185 4.762113 -0.568799 4.544341 -7.557087 5.126237 -75.137535 -41.240425 7.312455 78.915321 9.637508 -2.685150 11.303211 -0.845566 19.642389 
-0.000001 6.994015 37.994293 -89.999779 -0.002625 -49.999367 10.644318 -20.762909 -8.673060 8.143319 -22.484301 -17.716896 3.344611 -21.171543 -15.062229 -0.183339 -2.270657 29.398832 -24.288729 -5.080628 -3.684725 -52.260956 21.015553 -64.801338 -14.328641 -10.147265 -34.974243 1.972667 -18.371752 41.856995 -29.361113 -0.611520 3.403126 8.166594 25.929308 32.940983 75.847427 -28.476122 32.275108 6.067425 2.971799 10.634416 -31.310486 5.851668 53.047234 89.594185 4.762113 -0.568799 4.544341 -7.557088 5.126237 -75.137543 -41.240429 7.312459 78.915321 9.637508 -2.685150 11.303211 -0.845566 19.642389 
-0.000001 6.994015 37.994293 -89.999779 -0.002625 -49.999363 10.644317 -20.762907 -8.673059 8.143319 -22.484297 -17.716894 4.129447 -21.171593 -15.062186 0.207305 -2.627372 29.422123 -24.288727 -5.080628 -3.684725 -51.935635 20.801479 -64.789352 -14.328637 -10.147264 -34.974243 1.972647 -18.371618 43.067772 -29.361113 -0.611520 3.403126 8.166594 25.929308 32.940983 75.847427 -28.476120 32.275108 6.067425 2.971798 10.634415 -31.310482 5.851670 53.047230 89.594185 4.762113 -0.568799 4.544341 -7.557087 5.126237 -75.137535 -41.240425 7.312455 78.915321 9.637508 -2.685150 11.303211 -0.845566 19.642389 
-0.000001 6.994015 37.994293 -89.999779 -0.002623 -49.999363 10.644318 -20.762907 -8.673059 8.143319 -22.484301 -17.716896 4.914949 -21.171638 -15.062141 0.598074 -2.984376 29.442989 -24.288727 -5.080628 -3.684725 -51.610744 20.587303 -64.778671 -14.328639 -10.147265 -34.974243 1.972631 -18.371483 44.281006 -29.361113 -0.611520 3.403126 8.166594 25.929310 32.940983 75.847427 -28.476120 32.275108 6.067425 2.971799 10.634416 -31.310486 5.851669 53.047234 89.594185 4.762113 -0.568799 4.544341 -7.557087 5.126237 -75.137535 -41.240425 7.312455 78.915321 9.637509 -2.685151 11.303211 -0.845566 19.642389 
